<?xml version="1.0" encoding="utf-8"?>
<!-- Generator: Adobe Illustrator 21.0.2, SVG Export Plug-In . SVG Version: 6.00 Build 0)  -->
<svg version="1.1" id="Capa_1" xmlns="http://www.w3.org/2000/svg" xmlns:xlink="http://www.w3.org/1999/xlink" x="0px" y="0px"
	 viewBox="0 0 20.7 31.4" enable-background="new 0 0 20.7 31.4" xml:space="preserve">
<path d="M9.9,0c5.4,0,10.8,2.5,10.8,8.5c0,5.5-6.3,7.6-7.7,9.6c-1,1.5-0.7,3.6-3.5,3.6c-1.8,0-2.7-1.5-2.7-2.8c0-5,7.4-6.2,7.4-10.3
	c0-2.3-1.5-3.6-4.1-3.6c-5.4,0-3.3,5.6-7.4,5.6C1.3,10.4,0,9.5,0,7.8C0,3.7,4.7,0,9.9,0z M9.7,24.4c1.9,0,3.5,1.6,3.5,3.5
	s-1.6,3.5-3.5,3.5s-3.5-1.6-3.5-3.5C6.2,26,7.8,24.4,9.7,24.4z"/>
</svg>
