<?xml version="1.0" encoding="utf-8"?>
<!-- Generator: Adobe Illustrator 21.0.2, SVG Export Plug-In . SVG Version: 6.00 Build 0)  -->
<svg version="1.1" id="Capa_1" xmlns="http://www.w3.org/2000/svg" xmlns:xlink="http://www.w3.org/1999/xlink" x="0px" y="0px"
	 viewBox="0 0 19.3 18" style="enable-background:new 0 0 19.3 18;" xml:space="preserve">
<path d="M19,2.3C18.8,2.1,18.5,2,18.2,2H4.4L4.2,0.8C4.2,0.4,3.7,0,3.2,0H1C0.4,0,0,0.4,0,1s0.4,1,1,1h1.4l1.9,11.2
	c0,0,0,0.1,0,0.1c0,0.1,0,0.1,0.1,0.2c0,0.1,0.1,0.1,0.1,0.2c0,0,0.1,0.1,0.1,0.1c0.1,0.1,0.1,0.1,0.2,0.1c0,0,0.1,0,0.1,0.1
	C5,14,5.1,14,5.2,14c0,0,11,0,11,0c0.6,0,1-0.4,1-1s-0.4-1-1-1H6.1l-0.2-1h11.3c0.5,0,0.9-0.4,1-0.9l1-7C19.3,2.9,19.2,2.6,19,2.3z
	 M17.1,4l-0.3,2h-3.6V4H17.1z M12.2,4v2h-3V4H12.2z M12.2,7v2h-3V7H12.2z M8.2,4v2h-3C5.2,6,5.1,6,5.1,6L4.8,4H8.2z M5.3,7h3v2H5.6
	L5.3,7z M13.2,9V7h3.4l-0.3,2H13.2z"/>
<circle cx="6.8" cy="16.5" r="1.5"/>
<circle cx="15.8" cy="16.5" r="1.5"/>
</svg>
