<?xml version="1.0" encoding="utf-8"?>
<!-- Generator: Adobe Illustrator 21.0.2, SVG Export Plug-In . SVG Version: 6.00 Build 0)  -->
<svg version="1.1" id="Calque_2" xmlns="http://www.w3.org/2000/svg" xmlns:xlink="http://www.w3.org/1999/xlink" x="0px" y="0px"
	 viewBox="0 0 11 14" enable-background="new 0 0 11 14" xml:space="preserve">
<path fill="currentColor" d="M5.5,6.4c1.7,0,3.1-1.4,3.1-3.1S7.2,0.1,5.5,0.1S2.3,1.6,2.3,3.3S3.7,6.4,5.5,6.4z M5.5,0.9
	c1.3,0,2.3,1.1,2.3,2.4S6.7,5.6,5.5,5.6S3.1,4.6,3.1,3.3S4.2,0.9,5.5,0.9z"/>
<path fill="currentColor" d="M0.9,13.6h9c0.2,0,0.4-0.1,0.5-0.2c0.1-0.2,0.2-0.4,0.2-0.6c-0.2-3-2.5-5.3-5.3-5.3s-5,2.3-5.2,5.3
	c0,0.2,0.1,0.4,0.2,0.6C0.5,13.5,0.7,13.6,0.9,13.6z M5.5,8.3c2.4,0,4.3,1.9,4.5,4.5H1C1.1,10.3,3.1,8.3,5.5,8.3z"/>
</svg>
