<?xml version="1.0" encoding="utf-8"?>
<!-- Generator: Adobe Illustrator 21.0.2, SVG Export Plug-In . SVG Version: 6.00 Build 0)  -->
<svg version="1.1" id="Calque_1" xmlns="http://www.w3.org/2000/svg" xmlns:xlink="http://www.w3.org/1999/xlink" x="0px" y="0px"
	 viewBox="0 0 19 19" style="enable-background:new 0 0 19 19;" xml:space="preserve">
<polygon id="Fill-1" points="0.4,19 4.3,19 4.3,6.3 0.4,6.3 "/>
<path id="Fill-2" d="M2.3,4.7c1.3,0,2.3-1,2.3-2.3C4.6,1,3.6,0,2.3,0C1,0,0,1,0,2.3C0,3.6,1,4.7,2.3,4.7"/>
<path id="Fill-4" d="M10.5,12.3c0-1.8,0.8-2.8,2.4-2.8c1.4,0,2.1,1,2.1,2.8V19H19v-8c0-3.4-1.9-5-4.6-5
	c-2.7,0-3.8,2.1-3.8,2.1V6.3H6.8V19h3.8V12.3z"/>
</svg>
