<?xml version="1.0" encoding="utf-8"?>
<!-- Generator: Adobe Illustrator 21.0.2, SVG Export Plug-In . SVG Version: 6.00 Build 0)  -->
<svg version="1.1" id="Calque_1" xmlns="http://www.w3.org/2000/svg" xmlns:xlink="http://www.w3.org/1999/xlink" x="0px" y="0px"
	 viewBox="0 0 21.7 21.7" enable-background="new 0 0 21.7 21.7" xml:space="preserve">
<path d="M9.1,18.5c-2.4,0-4.7-0.9-6.5-2.7c-3.6-3.6-3.6-9.5,0.1-13.1l0,0c3.6-3.6,9.5-3.7,13.1-0.1
	c1.7,1.7,2.7,4.1,2.7,6.5c0,2.5-1,4.8-2.7,6.5C14,17.5,11.7,18.5,9.1,18.5C9.2,18.5,9.2,18.5,9.1,18.5z M4.6,4.6
	C2,7.2,1.9,11.4,4.5,14c1.2,1.2,2.9,1.9,4.7,1.9c1.8,0,3.5-0.7,4.7-2s2-2.9,2-4.7c0-1.8-0.7-3.4-1.9-4.7C11.4,1.9,7.2,2,4.6,4.6
	L4.6,4.6z"/>
<path id="Rectangle-2" d="M13.9,13.9L13.9,13.9c0.5-0.5,1.4-0.5,1.9,0l5.6,5.6c0.5,0.5,0.5,1.4,0,1.9l0,0
	c-0.5,0.5-1.4,0.5-1.9,0l-5.6-5.6C13.4,15.3,13.4,14.4,13.9,13.9z"/>
</svg>
