<?xml version="1.0" encoding="utf-8"?>
<!-- Generator: Adobe Illustrator 21.0.2, SVG Export Plug-In . SVG Version: 6.00 Build 0)  -->
<svg version="1.1" id="Calque_1" xmlns="http://www.w3.org/2000/svg" xmlns:xlink="http://www.w3.org/1999/xlink" x="0px" y="0px"
	 viewBox="0 0 20 16.3" style="enable-background:new 0 0 20 16.3;" xml:space="preserve">
<path id="picto-twitter" d="M0,14.4c1.8,1.2,4,1.8,6.3,1.8C13.9,16.3,18.2,9.8,18,4c0.8-0.6,1.5-1.3,2-2.1
	c-0.7,0.3-1.5,0.5-2.4,0.6c0.8-0.5,1.5-1.3,1.8-2.3c-0.8,0.5-1.7,0.8-2.6,1C16.1,0.5,15,0,13.8,0c-2.6,0-4.6,2.5-4,5
	C6.4,4.9,3.4,3.2,1.4,0.8C0.3,2.6,0.8,5,2.7,6.2C2,6.2,1.4,6,0.8,5.7c0,1.9,1.3,3.7,3.3,4.1C3.5,9.9,2.9,10,2.2,9.9
	c0.5,1.6,2,2.8,3.8,2.8C4.3,14.1,2.2,14.7,0,14.4"/>
</svg>
