<svg xmlns="http://www.w3.org/2000/svg" style="position:absolute; width: 0; height: 0;"><symbol viewBox="0 0 20.7 31.4" id="icon-ask"><path d="M9.9 0c5.4 0 10.8 2.5 10.8 8.5 0 5.5-6.3 7.6-7.7 9.6-1 1.5-.7 3.6-3.5 3.6-1.8 0-2.7-1.5-2.7-2.8 0-5 7.4-6.2 7.4-10.3 0-2.3-1.5-3.6-4.1-3.6-5.4 0-3.3 5.6-7.4 5.6C1.3 10.4 0 9.5 0 7.8 0 3.7 4.7 0 9.9 0zm-.2 24.4c1.9 0 3.5 1.6 3.5 3.5s-1.6 3.5-3.5 3.5-3.5-1.6-3.5-3.5 1.6-3.5 3.5-3.5z"></path></symbol><symbol viewBox="0 0 7.8 12.8" id="icon-back"><path fill="currentColor" d="M6.4 12.8L0 6.4 6.4 0l1.4 1.4-4.9 5 4.9 5z"></path></symbol><symbol viewBox="0 0 19.3 18" id="icon-cart"><path d="M19 2.3c-.2-.2-.5-.3-.8-.3H4.4L4.2.8c0-.4-.5-.8-1-.8H1C.4 0 0 .4 0 1s.4 1 1 1h1.4l1.9 11.2v.1c0 .1 0 .1.1.2 0 .1.1.1.1.2l.1.1c.1.1.1.1.2.1 0 0 .1 0 .1.1h11.3c.6 0 1-.4 1-1s-.4-1-1-1H6.1l-.2-1h11.3c.5 0 .9-.4 1-.9l1-7c.1-.2 0-.5-.2-.8zM17.1 4l-.3 2h-3.6V4h3.9zm-4.9 0v2h-3V4h3zm0 3v2h-3V7h3zm-4-3v2h-3-.1l-.3-2h3.4zM5.3 7h3v2H5.6l-.3-2zm7.9 2V7h3.4l-.3 2h-3.1z"></path><circle cx="6.8" cy="16.5" r="1.5"></circle><circle cx="15.8" cy="16.5" r="1.5"></circle></symbol><symbol viewBox="0 0 11 14" id="icon-conseiller"><path fill="currentColor" d="M5.5 6.4c1.7 0 3.1-1.4 3.1-3.1S7.2.1 5.5.1 2.3 1.6 2.3 3.3s1.4 3.1 3.2 3.1zm0-5.5C6.8.9 7.8 2 7.8 3.3S6.7 5.6 5.5 5.6s-2.4-1-2.4-2.3S4.2.9 5.5.9zM.9 13.6h9c.2 0 .4-.1.5-.2.1-.2.2-.4.2-.6-.2-3-2.5-5.3-5.3-5.3S.3 9.8.1 12.8c0 .2.1.4.2.6.2.1.4.2.6.2zm4.6-5.3c2.4 0 4.3 1.9 4.5 4.5H1c.1-2.5 2.1-4.5 4.5-4.5z"></path></symbol><symbol viewBox="0 0 9.3 20" id="icon-facebook"><path d="M2.1 20h4V9.9H9l.3-3.4H6.1V4.6c0-.8.2-1.1.9-1.1h2.2V0H6.5c-3 0-4.4 1.3-4.4 3.9v2.7H0V10h2.1v10z"></path></symbol><symbol viewBox="0 0 19 19" id="icon-linkedin"><path d="M.4 19h3.9V6.3H.4zM2.3 4.7c1.3 0 2.3-1 2.3-2.3C4.6 1 3.6 0 2.3 0 1 0 0 1 0 2.3c0 1.3 1 2.4 2.3 2.4M10.5 12.3c0-1.8.8-2.8 2.4-2.8 1.4 0 2.1 1 2.1 2.8V19h4v-8c0-3.4-1.9-5-4.6-5-2.7 0-3.8 2.1-3.8 2.1V6.3H6.8V19h3.8v-6.7z"></path></symbol><symbol viewBox="0 0 21 24.8" id="icon-lock"><path fill="currentColor" d="M3.1 3.7v4.5C1.4 8.3 0 9.6 0 11.3v10.4c0 1.7 1.5 3.1 3.3 3.1h14.5c1.8 0 3.3-1.4 3.3-3.1V11.3c0-1.7-1.4-3.1-3.1-3.1V3.7c0-2-1.7-3.7-3.8-3.7H6.9C4.8 0 3.1 1.6 3.1 3.7zM19 11.3v10.4c0 .7-.6 1.2-1.3 1.2H3.3c-.7 0-1.3-.5-1.3-1.2V11.3c0-.7.6-1.2 1.3-1.2h14.5c.6 0 1.2.5 1.2 1.2zm-3.1-7.6v4.5H5.1V3.7c0-1 .8-1.8 1.8-1.8H14c1 0 1.9.8 1.9 1.8zm-5.2 11.6c.6 0 1.2.4 1.2.9V19c0 .5-.5.9-1.2.9-.6 0-1.2-.4-1.2-.9v-2.8c.1-.5.6-.9 1.2-.9z"></path></symbol><symbol viewBox="0 0 29.731 29.731" id="icon-phone"><path d="M23.895 29.731c-1.237 0-2.731-.31-4.374-.93-3.602-1.358-7.521-4.042-11.035-7.556C4.971 17.73 2.287 13.81.928 10.208-.307 6.933-.31 4.245.921 3.015c.177-.177.357-.367.543-.563C2.587 1.271 3.856-.058 5.538.002 6.697.05 7.82.77 8.97 2.201c3.398 4.226 1.866 5.732.093 7.478l-.313.31c-.29.29-.838 1.633 4.26 6.731 1.664 1.664 3.083 2.882 4.217 3.619.714.464 1.991 1.166 2.515.642l.315-.318c1.744-1.769 3.25-3.296 7.473.099 1.431 1.15 2.15 2.272 2.198 3.433.069 1.681-1.27 2.953-2.452 4.075-.195.186-.385.366-.562.542-.611.612-1.588.919-2.819.919zM5.418 1C4.223 1 3.144 2.136 2.189 3.141c-.192.202-.378.398-.561.581-.917.916-.824 3.323.236 6.134 1.31 3.472 3.913 7.266 7.33 10.683 3.416 3.415 7.208 6.018 10.681 7.327 2.811 1.062 5.218 1.152 6.133.237.183-.183.379-.369.581-.56 1.027-.976 2.192-2.082 2.141-3.309-.035-.843-.649-1.75-1.825-2.695-3.519-2.83-4.503-1.831-6.135-.176l-.32.323c-.78.781-2.047.608-3.767-.51-1.193-.776-2.667-2.038-4.379-3.751-4.231-4.23-5.584-6.819-4.26-8.146l.319-.315c1.659-1.632 2.66-2.617-.171-6.138-.947-1.175-1.853-1.789-2.696-1.825L5.418 1z"></path></symbol><symbol viewBox="0 0 21.7 21.7" id="icon-search"><path d="M9.1 18.5c-2.4 0-4.7-.9-6.5-2.7C-1 12.2-1 6.3 2.7 2.7 6.3-.9 12.2-1 15.8 2.6c1.7 1.7 2.7 4.1 2.7 6.5 0 2.5-1 4.8-2.7 6.5-1.8 1.9-4.1 2.9-6.7 2.9.1 0 .1 0 0 0zM4.6 4.6C2 7.2 1.9 11.4 4.5 14c1.2 1.2 2.9 1.9 4.7 1.9 1.8 0 3.5-.7 4.7-2s2-2.9 2-4.7c0-1.8-.7-3.4-1.9-4.7-2.6-2.6-6.8-2.5-9.4.1z"></path><path d="M13.9 13.9c.5-.5 1.4-.5 1.9 0l5.6 5.6c.5.5.5 1.4 0 1.9s-1.4.5-1.9 0l-5.6-5.6c-.5-.5-.5-1.4 0-1.9z"></path></symbol><symbol viewBox="0 0 20 16.3" id="icon-twitter"><path d="M0 14.4c1.8 1.2 4 1.8 6.3 1.8C13.9 16.3 18.2 9.8 18 4c.8-.6 1.5-1.3 2-2.1-.7.3-1.5.5-2.4.6.8-.5 1.5-1.3 1.8-2.3-.8.5-1.7.8-2.6 1C16.1.5 15 0 13.8 0c-2.6 0-4.6 2.5-4 5C6.4 4.9 3.4 3.2 1.4.8.3 2.6.8 5 2.7 6.2 2 6.2 1.4 6 .8 5.7c0 1.9 1.3 3.7 3.3 4.1-.6.1-1.2.2-1.9.1.5 1.6 2 2.8 3.8 2.8-1.7 1.4-3.8 2-6 1.7"></path></symbol></svg>